<svg xmlns="http://www.w3.org/2000/svg" version="1.1" xmlns:xlink="http://www.w3.org/1999/xlink" xmlns:svgjs="http://svgjs.dev/svgjs" width="1440" height="560" preserveAspectRatio="none" viewBox="0 0 1440 560"><g mask="url(&quot;#SvgjsMask1682&quot;)" fill="none"><rect width="1440" height="560" x="0" y="0" fill="url(&quot;#SvgjsLinearGradient1683&quot;)"></rect><path d="M1440 0L1235.59 0L1440 239.25z" fill="rgba(255, 255, 255, .1)"></path><path d="M1235.59 0L1440 239.25L1440 399.15999999999997L926.3999999999999 0z" fill="rgba(255, 255, 255, .075)"></path><path d="M926.4 0L1440 399.15999999999997L1440 412.78999999999996L521.3 0z" fill="rgba(255, 255, 255, .05)"></path><path d="M521.3 0L1440 412.78999999999996L1440 448.28999999999996L164.15999999999997 0z" fill="rgba(255, 255, 255, .025)"></path><path d="M0 560L13.12 560L0 420.06z" fill="rgba(0, 0, 0, .1)"></path><path d="M0 420.06L13.12 560L734.17 560L0 314.61z" fill="rgba(0, 0, 0, .075)"></path><path d="M0 314.61L734.17 560L1002.0799999999999 560L0 273.75z" fill="rgba(0, 0, 0, .05)"></path><path d="M0 273.75L1002.0799999999999 560L1303.06 560L0 208.09z" fill="rgba(0, 0, 0, .025)"></path></g><defs><mask id="SvgjsMask1682"><rect width="1440" height="560" fill="#ffffff"></rect></mask><linearGradient x1="15.28%" y1="-39.29%" x2="84.72%" y2="139.29%" gradientUnits="userSpaceOnUse" id="SvgjsLinearGradient1683"><stop stop-color="rgba(198, 48, 51, 0.84)" offset="1"></stop><stop stop-color="rgba(200, 175, 175, 0.79)" offset="1"></stop></linearGradient></defs></svg>